<svg width="32" height="32" viewBox="0 0 32 32" fill="none" xmlns="http://www.w3.org/2000/svg">
<rect x="0.5" y="0.5" width="31" height="31" rx="7.5" fill="white"/>
<rect x="0.5" y="0.5" width="31" height="31" rx="7.5" stroke="#EFEFEF"/>
<rect x="4" y="4" width="24" height="24" rx="6" fill="#21CCEE"/>
<path d="M21.0604 14.1477H19.2876C19.2195 13.7689 19.0926 13.4356 18.907 13.1477C18.7214 12.8598 18.4941 12.6155 18.2251 12.4148C17.9562 12.214 17.6551 12.0625 17.3217 11.9602C16.9922 11.858 16.6418 11.8068 16.2706 11.8068C15.6001 11.8068 14.9998 11.9754 14.4695 12.3125C13.9429 12.6496 13.5263 13.1439 13.2195 13.7955C12.9164 14.447 12.7649 15.2424 12.7649 16.1818C12.7649 17.1288 12.9164 17.928 13.2195 18.5795C13.5263 19.2311 13.9448 19.7235 14.4751 20.0568C15.0054 20.3902 15.602 20.5568 16.2649 20.5568C16.6323 20.5568 16.9808 20.5076 17.3104 20.4091C17.6437 20.3068 17.9448 20.1572 18.2138 19.9602C18.4827 19.7633 18.71 19.5227 18.8956 19.2386C19.085 18.9508 19.2157 18.6212 19.2876 18.25L21.0604 18.2557C20.9657 18.8277 20.782 19.3542 20.5092 19.8352C20.2403 20.3125 19.8937 20.7254 19.4695 21.0739C19.049 21.4186 18.5679 21.6856 18.0263 21.875C17.4846 22.0644 16.8937 22.1591 16.2536 22.1591C15.246 22.1591 14.3482 21.9205 13.5604 21.4432C12.7725 20.9621 12.1513 20.2746 11.6967 19.3807C11.246 18.4867 11.0206 17.4205 11.0206 16.1818C11.0206 14.9394 11.2479 13.8731 11.7024 12.983C12.157 12.089 12.7782 11.4034 13.5661 10.9261C14.3539 10.4451 15.2498 10.2045 16.2536 10.2045C16.871 10.2045 17.4467 10.2936 17.9808 10.4716C18.5187 10.6458 19.0017 10.9034 19.4297 11.2443C19.8577 11.5814 20.2119 11.9943 20.4922 12.483C20.7725 12.9678 20.9619 13.5227 21.0604 14.1477Z" fill="white"/>
</svg>
