<svg width="17" height="16" viewBox="0 0 17 16" fill="none" xmlns="http://www.w3.org/2000/svg">
<path d="M2.5 2V14M12.2718 13.0746L7.2672 9.07091C6.80962 8.70484 6.58083 8.52181 6.498 8.30068C6.42537 8.10681 6.42537 7.89319 6.498 7.69932C6.58083 7.47819 6.80962 7.29516 7.2672 6.92909L12.2718 2.92538C12.9851 2.35475 13.3418 2.06943 13.6419 2.06911C13.903 2.06883 14.1499 2.18751 14.3128 2.39152C14.5 2.6261 14.5 3.08283 14.5 3.99629V12.0037C14.5 12.9172 14.5 13.3739 14.3128 13.6085C14.1499 13.8125 13.903 13.9312 13.6419 13.9309C13.3418 13.9306 12.9851 13.6453 12.2718 13.0746Z" stroke="#303030" stroke-width="1.2" stroke-linecap="round" stroke-linejoin="round"/>
</svg>
