<svg width="17" height="16" viewBox="0 0 17 16" fill="none" xmlns="http://www.w3.org/2000/svg">
<path d="M6.94523 1.37246C6.69002 1.48183 6.69783 1.89329 6.95565 2.00267C7.19523 2.10162 7.43742 1.94017 7.43742 1.68496C7.43742 1.42194 7.19002 1.26569 6.94523 1.37246Z" fill="#303030"/>
<path d="M9.73169 1.38548C9.68481 1.41152 9.63013 1.4636 9.60669 1.50006C9.552 1.58339 9.552 1.78652 9.60409 1.86725C9.79679 2.15891 10.2447 2.03131 10.2447 1.68496C10.2447 1.41673 9.95565 1.24746 9.73169 1.38548Z" fill="#303030"/>
<path d="M4.15356 3.10683C3.61711 3.211 3.40877 3.88027 3.79159 4.2761C4.12492 4.61725 4.70304 4.5235 4.91919 4.09381C4.94523 4.04433 4.97127 3.92454 4.97909 3.83079C4.9895 3.68496 4.98169 3.63548 4.927 3.51829C4.78377 3.20579 4.47909 3.04433 4.15356 3.10683Z" fill="#303030"/>
<path d="M6.97127 3.10683C6.42179 3.20839 6.20825 3.88548 6.60409 4.28131C7.02075 4.69798 7.74211 4.43235 7.79159 3.84381C7.82804 3.4011 7.41138 3.0261 6.97127 3.10683Z" fill="#303030"/>
<path d="M9.78377 3.10683C9.43221 3.17194 9.17961 3.49485 9.20825 3.84381C9.25773 4.43235 9.97909 4.69798 10.3958 4.28131C10.7343 3.94017 10.6275 3.34381 10.1952 3.16152C10.0442 3.09642 9.92179 3.08079 9.78377 3.10683Z" fill="#303030"/>
<path d="M12.5676 3.10683C12.3541 3.1485 12.1744 3.29694 12.0728 3.51829C12.0181 3.63548 12.0103 3.68496 12.0208 3.83079C12.0494 4.20579 12.2942 4.45058 12.6692 4.47923C12.815 4.48964 12.8645 4.48183 12.9817 4.42714C13.4244 4.22402 13.5442 3.69277 13.2291 3.32037C13.0911 3.15631 12.7968 3.06256 12.5676 3.10683Z" fill="#303030"/>
<path d="M6.76815 5.60162C6.58586 5.66152 6.47127 5.73704 6.33325 5.88548C6.13794 6.09381 6.052 6.30996 6.052 6.59381C6.052 7.00787 6.27596 7.36464 6.65096 7.54173C6.80721 7.61725 6.84106 7.62246 7.09367 7.62246C7.34627 7.62246 7.38013 7.61725 7.54159 7.53912C7.76294 7.43496 7.93481 7.26308 8.03898 7.04173C8.11711 6.88027 8.12231 6.84642 8.12231 6.59381C8.12231 6.34121 8.11711 6.30735 8.04159 6.1511C7.8619 5.77089 7.50513 5.54954 7.08065 5.55475C6.98169 5.55475 6.83846 5.57558 6.76815 5.60162Z" fill="#303030"/>
<path d="M9.60409 5.59121C9.31242 5.68235 9.08586 5.87767 8.95825 6.1511C8.88273 6.30735 8.87752 6.34121 8.87752 6.59381C8.87752 6.84642 8.88273 6.88027 8.96086 7.04173C9.06502 7.26308 9.2369 7.43496 9.45825 7.53912C9.61971 7.61725 9.65356 7.62246 9.90617 7.62246C10.1588 7.62246 10.1926 7.61725 10.3489 7.54173C10.8879 7.28652 11.1067 6.63287 10.8306 6.09642C10.7681 5.97662 10.565 5.76569 10.4374 5.69277C10.2083 5.55735 9.84888 5.51308 9.60409 5.59121Z" fill="#303030"/>
<path d="M4.11971 5.91673C3.81502 5.99225 3.59888 6.2735 3.59888 6.59381C3.59888 6.99746 3.94784 7.32558 4.34367 7.29173C4.93221 7.24225 5.19784 6.52089 4.78117 6.10423C4.6145 5.94017 4.33846 5.86204 4.11971 5.91673Z" fill="#303030"/>
<path d="M12.5155 5.92714C12.2109 6.0261 12.0155 6.28652 12.0155 6.59381C12.0155 7.06777 12.4791 7.40631 12.9296 7.25787C13.5103 7.06516 13.5676 6.25266 13.0181 5.97141C12.8801 5.9011 12.6588 5.88027 12.5155 5.92714Z" fill="#303030"/>
<path d="M1.99471 6.30735C1.90096 6.36464 1.83325 6.49485 1.83325 6.61204C1.83325 6.70319 1.91398 6.8386 1.99992 6.89329C2.08325 6.94798 2.28638 6.94798 2.36711 6.89589C2.65877 6.70319 2.53117 6.25527 2.18481 6.25527C2.12492 6.25527 2.04419 6.27871 1.99471 6.30735Z" fill="#303030"/>
<path d="M14.6249 6.30735C14.4166 6.43496 14.4218 6.75787 14.6327 6.89589C14.7135 6.94798 14.9166 6.94798 14.9999 6.89329C15.2916 6.70319 15.1614 6.25527 14.815 6.25527C14.7551 6.25527 14.6744 6.27871 14.6249 6.30735Z" fill="#303030"/>
<path d="M6.77856 8.4011C6.31242 8.57819 6.052 8.94016 6.052 9.40631C6.052 9.69277 6.13794 9.90631 6.33325 10.1146C6.54419 10.3386 6.78898 10.448 7.09367 10.448C7.50773 10.448 7.8645 10.224 8.04159 9.84902C8.11711 9.69277 8.12231 9.65891 8.12231 9.40631C8.12231 9.15371 8.11711 9.11985 8.03898 8.95839C7.93481 8.73704 7.76294 8.56516 7.54159 8.461C7.38794 8.38808 7.33586 8.37766 7.11971 8.37246C6.96086 8.36725 6.83846 8.37766 6.77856 8.4011Z" fill="#303030"/>
<path d="M9.53377 8.42714C9.23429 8.55214 9.08065 8.69798 8.94784 8.98183C8.88534 9.11725 8.87752 9.16412 8.87752 9.40631C8.87752 9.65891 8.88273 9.69277 8.95825 9.84902C9.13534 10.224 9.49211 10.448 9.90617 10.448C10.2109 10.448 10.4556 10.3386 10.6666 10.1146C10.8619 9.90631 10.9478 9.69277 10.9478 9.40631C10.9478 8.99225 10.7239 8.63548 10.3489 8.45839C10.203 8.38808 10.1458 8.37766 9.93221 8.36985C9.71867 8.36464 9.66398 8.37246 9.53377 8.42714Z" fill="#303030"/>
<path d="M4.03638 8.75527C3.6744 8.8985 3.49992 9.32558 3.65617 9.68496C3.84627 10.1277 4.43742 10.2396 4.78117 9.8959C5.11971 9.55735 5.01815 8.97923 4.58065 8.76829C4.42961 8.69798 4.19523 8.69017 4.03638 8.75527Z" fill="#303030"/>
<path d="M12.4947 8.73444C12.3541 8.78131 12.1666 8.94277 12.0963 9.08079C12.0077 9.24746 11.9999 9.54694 12.078 9.70319C12.3437 10.2344 13.1119 10.224 13.3437 9.68496C13.4999 9.32298 13.3202 8.89069 12.9609 8.75527C12.8124 8.70058 12.6275 8.69277 12.4947 8.73444Z" fill="#303030"/>
<path d="M2.09888 9.07037C1.95565 9.09902 1.83325 9.25006 1.83325 9.39329C1.83325 9.67194 2.15096 9.84121 2.38273 9.68496C2.69523 9.47402 2.47388 8.98964 2.09888 9.07037Z" fill="#303030"/>
<path d="M14.7239 9.07037C14.5364 9.10944 14.4218 9.34121 14.4947 9.53131C14.5963 9.80215 15.0181 9.81517 15.1301 9.54954C15.2473 9.26829 15.026 9.00787 14.7239 9.07037Z" fill="#303030"/>
<path d="M4.00773 11.5756C3.74731 11.7006 3.59888 11.9297 3.59888 12.2032C3.59888 12.6042 3.89315 12.9011 4.29159 12.9011C4.90096 12.9037 5.21086 12.1719 4.79159 11.7292C4.66659 11.5964 4.52856 11.5339 4.32023 11.5235C4.16659 11.5157 4.11711 11.5235 4.00773 11.5756Z" fill="#303030"/>
<path d="M6.87231 11.5495C6.55721 11.6719 6.36711 11.974 6.40356 12.2865C6.47388 12.8777 7.20825 13.1146 7.60929 12.6771C8.02075 12.2292 7.69263 11.5079 7.08325 11.5183C7.01034 11.5183 6.91398 11.5339 6.87231 11.5495Z" fill="#303030"/>
<path d="M9.64836 11.56C9.51294 11.6094 9.33846 11.7735 9.27075 11.9193C9.05461 12.3699 9.40096 12.9011 9.90617 12.9011C10.2942 12.9011 10.5937 12.6042 10.5937 12.2214C10.5963 11.9402 10.4478 11.698 10.203 11.5808C10.0676 11.5157 9.79679 11.5053 9.64836 11.56Z" fill="#303030"/>
<path d="M12.5103 11.5391C12.3306 11.5938 12.1666 11.7344 12.0806 11.9063C12.0546 11.9558 12.0286 12.0756 12.0208 12.1693C12.0103 12.3152 12.0181 12.3646 12.0728 12.4818C12.1978 12.7527 12.4244 12.9011 12.7083 12.9011C13.4583 12.9011 13.6744 11.8959 12.9921 11.5782C12.8593 11.5157 12.6484 11.4975 12.5103 11.5391Z" fill="#303030"/>
<path d="M6.94523 14.0001C6.77075 14.0808 6.70044 14.3308 6.80721 14.5053C6.8645 14.599 6.99471 14.6667 7.1119 14.6667C7.20304 14.6667 7.33846 14.586 7.39315 14.5001C7.44784 14.4167 7.44784 14.2136 7.39575 14.1329C7.302 13.9896 7.09888 13.9297 6.94523 14.0001Z" fill="#303030"/>
<path d="M9.75252 14.0105C9.61971 14.0756 9.56242 14.1693 9.56242 14.3126C9.56242 14.4532 9.6119 14.5443 9.73169 14.6146C9.95565 14.7527 10.2447 14.5834 10.2447 14.3152C10.2447 14.1797 10.164 14.0495 10.0494 14.0001C9.93221 13.9532 9.85929 13.9532 9.75252 14.0105Z" fill="#303030"/>
</svg>
