<svg width="17" height="16" viewBox="0 0 17 16" fill="none" xmlns="http://www.w3.org/2000/svg">
<path d="M14.5 2V14M4.72815 13.0746L9.7328 9.07091C10.1904 8.70484 10.4192 8.52181 10.502 8.30068C10.5746 8.10681 10.5746 7.89319 10.502 7.69932C10.4192 7.47819 10.1904 7.29516 9.7328 6.92909L4.72815 2.92538C4.01486 2.35475 3.65822 2.06943 3.35807 2.06911C3.09703 2.06883 2.8501 2.18751 2.68725 2.39152C2.5 2.6261 2.5 3.08283 2.5 3.99629V12.0037C2.5 12.9172 2.5 13.3739 2.68725 13.6085C2.8501 13.8125 3.09703 13.9312 3.35807 13.9309C3.65822 13.9306 4.01486 13.6453 4.72815 13.0746Z" stroke="#303030" stroke-width="1.2" stroke-linecap="round" stroke-linejoin="round"/>
</svg>
