<svg width="34" height="31" viewBox="0 0 34 31" fill="none" xmlns="http://www.w3.org/2000/svg">
<g filter="url(#filter0_d_2094_246)">
<rect x="4" y="3" width="24" height="24" rx="6" fill="#CAF6FD"/>
<rect x="4" y="3" width="24" height="24" rx="6" fill="url(#paint0_linear_2094_246)"/>
<rect x="4.5" y="3.5" width="23" height="23" rx="5.5" stroke="#EE45BC"/>
<path d="M14.5 18V12.1777C14.5 11.9369 14.5 11.8165 14.5438 11.7189C14.5824 11.6328 14.6446 11.5594 14.7231 11.5072C14.8122 11.4479 14.931 11.4282 15.1685 11.3886L19.5685 10.6552C19.889 10.6018 20.0492 10.5751 20.1741 10.6215C20.2837 10.6622 20.3755 10.74 20.4337 10.8414C20.5 10.957 20.5 11.1194 20.5 11.4444V17M14.5 18C14.5 18.8284 13.8284 19.5 13 19.5C12.1716 19.5 11.5 18.8284 11.5 18C11.5 17.1716 12.1716 16.5 13 16.5C13.8284 16.5 14.5 17.1716 14.5 18ZM20.5 17C20.5 17.8284 19.8284 18.5 19 18.5C18.1716 18.5 17.5 17.8284 17.5 17C17.5 16.1716 18.1716 15.5 19 15.5C19.8284 15.5 20.5 16.1716 20.5 17Z" stroke="#EE45BC" stroke-linecap="round" stroke-linejoin="round"/>
</g>
<defs>
<filter id="filter0_d_2094_246" x="-2" y="0" width="36" height="36" filterUnits="userSpaceOnUse" color-interpolation-filters="sRGB">
<feFlood flood-opacity="0" result="BackgroundImageFix"/>
<feColorMatrix in="SourceAlpha" type="matrix" values="0 0 0 0 0 0 0 0 0 0 0 0 0 0 0 0 0 0 127 0" result="hardAlpha"/>
<feMorphology radius="3" operator="erode" in="SourceAlpha" result="effect1_dropShadow_2094_246"/>
<feOffset dy="3"/>
<feGaussianBlur stdDeviation="4.5"/>
<feComposite in2="hardAlpha" operator="out"/>
<feColorMatrix type="matrix" values="0 0 0 0 0 0 0 0 0 0 0 0 0 0 0 0 0 0 0.25 0"/>
<feBlend mode="normal" in2="BackgroundImageFix" result="effect1_dropShadow_2094_246"/>
<feBlend mode="normal" in="SourceGraphic" in2="effect1_dropShadow_2094_246" result="shape"/>
</filter>
<linearGradient id="paint0_linear_2094_246" x1="16" y1="3" x2="16" y2="27" gradientUnits="userSpaceOnUse">
<stop stop-color="#FFDEF3"/>
<stop offset="1" stop-color="#FEF0F9"/>
</linearGradient>
</defs>
</svg>
