<svg width="1019" height="18" viewBox="0 0 1019 18" fill="none" xmlns="http://www.w3.org/2000/svg">
<path d="M-315 3V15M-312.5 6V12M-310 4V14M-307.5 6V12M-305 4V14M-302.5 7V11M-300 4V14M-297.5 5V13M-295 8V10M-292.5 4V14M-290 7V11M-287.5 6V12M-285 3V15M-282.5 3V15M-280 3V15M-277.5 2V16M-275 6V12M-272.5 8V10M-270 1V17M-267.5 6V12M-265 7V11M-262.5 8V10M-260 2V16M-257.5 7V11M-255 6V12M-252.5 8V10M-250 8V10M-247.5 4V14M-245 6V12M-242.5 1V17M-240 7V11M-237.5 7V11M-235 7V11M-232.5 8V10M-230 2V16M-227.5 1V17M-225 4V14M-222.5 4V14M-220 8V10M-217.5 7V11M-215 6V12M-212.5 3V15M-210 2V16M-207.5 6V12M-204.5 8V10M-201.5 1V17M-198.5 6V12M-195.5 7V11M-192.5 8V10M-189.5 2V16M-186.5 7V11M-183.5 6V12M-180.5 8V10M-177.5 8V10M-174.5 4V14M-171.5 6V12M-168.5 1V17M-165.5 7V11M-162.5 7V11M-159.5 7V11M-156.5 8L-156.5 10M-153.5 2L-153.5 16M-150.5 1L-150.5 17M-147.5 4L-147.5 14M-144.5 4L-144.5 14M-141.5 8V10M-138.5 7V11M-135.5 6V12M-132.5 3V15M-129.5 5V13M-126.5 2V16M-123.5 2V16M-120.5 5V13M-117.5 8V10M-114.5 4V14M-111.5 2V16M-108.5 3V15M-106 6V12M-103.5 4V14M-101 6V12M-98.5 4V14M-96 7V11M-93.5 4V14M-91 5V13M-88.5 8V10M-86 4V14M-83.5 7V11M-81 6V12M-78.5 3V15M-76 3V15M-73.5 3V15M-71 2V16M-68.5 6V12M-66 8V10M-63.5 1V17M-61 6V12M-58.5 7V11M-56 8V10M-53.5 2V16M-51 7V11M-48.5 6V12M-46 8V10M-43.5 8V10M-41 4V14M-38.5 6V12M-36 1V17M-33.5 7V11M-31 7V11M-28.5 7V11M-26 8V10M-23.5 2V16M-21 1V17M-18.5 4V14M-16 4V14M-13.5 8V10M-11 7V11M-8.49997 6V12M-5.99997 3V15M-3.49997 2V16M-0.999969 6V12M2.00003 8V10M5.00003 1V17M8.00003 6V12M11 7V11M14 8V10M17 2V16M20.0001 7V11M23.0001 6V12M26.0001 8V10M29.0001 8V10M32 4V14M35.0001 6V12M38.0001 1V17M41.0001 7V11M44 7V11M47 7V11M50 8L50.0001 10M53 2L53.0001 16M56 1L56.0001 17M59 4L59.0001 14M62 4L62.0001 14M65.0001 8V10M68.0001 7V11M71.0001 6V12M74.0001 3V15M77.0001 5V13M80.0001 2V16M83.0001 2V16M86.0001 5V13M89.0001 8V10M92.0001 4V14M95.0001 2V16M98.0001 3V15M100.5 6V12M103 4V14M105.5 6V12M108 4V14M110.5 7V11M113 4V14M115.5 5V13M118 8V10M120.5 4V14M123 7V11M125.5 6V12M128 3V15M130.5 3V15M133 3V15M135.5 2V16M138 6V12M140.5 8V10M143 1V17M145.5 6V12M148 7V11M150.5 8V10M153 2V16M155.5 7V11M158 6V12M160.5 8V10M163 8V10M165.5 4V14M168 6V12M170.5 1V17M173 7V11M175.5 7V11M178 7V11M180.5 8V10M183 2V16M185.5 1V17M188 4V14M190.5 4V14M193 8V10M195.5 7V11M198 6V12M200.5 3V15M203 2V16M205.5 6V12M208.5 8V10M211.5 1V17M214.5 6V12M217.5 7V11M220.5 8V10M223.5 2V16M226.5 7V11M229.5 6V12M232.5 8V10M235.5 8V10M238.5 4V14M241.5 6V12M244.5 1V17M247.5 7V11M250.5 7V11M253.5 7V11M256.5 8L256.5 10M259.5 2L259.5 16M262.5 1L262.5 17M265.5 4L265.5 14M268.5 4L268.5 14M271.5 8V10M274.5 7V11M277.5 6V12M280.5 3V15M283.5 5V13M286.5 2V16M289.5 2V16M292.5 5V13M295.5 8V10M298.5 4V14M301.5 2V16M304.5 3V15M307 6V12M309.5 4V14M312 6V12M314.5 4V14M317 7V11M319.5 4V14M322 5V13M324.5 8V10M327 4V14M329.5 7V11M332 6V12M334.5 3V15M337 3V15M339.5 3V15M342 2V16M344.5 6V12M347 8V10M349.5 1V17M352 6V12M354.5 7V11M357 8V10M359.5 2V16M362 7V11M364.5 6V12M367 8V10M369.5 8V10M372 4V14M374.5 6V12M377 1V17M379.5 7V11M382 7V11M384.5 7V11M387 8V10M389.5 2V16M392 1V17M394.5 4V14M397 4V14M399.5 8V10M402 7V11M404.5 6V12M407 3V15M409.5 2V16M412 6V12M415 8V10M418 1V17M421 6V12M424 7V11M427 8V10M430 2V16M433 7V11M436 6V12M439 8V10M442 8V10M445 4V14M448 6V12M451 1V17M454 7V11M457 7V11M460 7V11M463 8V10M466 2V16M469 1V17M472 4V14M475 4V14M478 8V10M481 7V11M484 6V12M487 3V15M490 5V13M493 2V16M496 2V16M499 5V13M502 8V10M505 4V14M508 2V16M511 3V15M513.5 6V12M516 4V14M518.5 6V12M521 4V14M523.5 7V11M526 4V14M528.5 5V13M531 8V10M533.5 4V14M536 7V11M538.5 6V12M541 3V15M543.5 3V15M546 3V15M548.5 2V16M551 6V12M553.5 8V10M556 1V17M558.5 6V12M561 7V11M563.5 8V10M566 2V16M568.5 7V11M571 6V12M573.5 8V10M576 8V10M578.5 4V14M581 6V12M583.5 1V17M586 7V11M588.5 7V11M591 7V11M593.5 8V10M596 2V16M598.5 1V17M601 4V14M603.5 4V14M606 8V10M608.5 7V11M611 6V12M613.5 3V15M616 2V16M618.5 6V12M621.5 8V10M624.5 1V17M627.5 6V12M630.5 7V11M633.5 8V10M636.5 2V16M639.5 7V11M642.5 6V12M645.5 8V10M648.5 8V10M651.5 4V14M654.5 6V12M657.5 1V17M660.5 7V11M663.5 7V11M666.5 7V11M669.5 8V10M672.5 2V16M675.5 1V17M678.5 4V14M681.5 4V14M684.5 8V10M687.5 7V11M690.5 6V12M693.5 3V15M696.5 5V13M699.5 2V16M702.5 2V16M705.5 5V13M708.5 8V10M711.5 4V14M714.5 2V16M717.5 3V15M720 6V12M722.5 4V14M725 6V12M727.5 4V14M730 7V11M732.5 4V14M735 5V13M737.5 8V10M740 4V14M742.5 7V11M745 6V12M747.5 3V15M750 3V15M752.5 3V15M755 2V16M757.5 6V12M760 8V10M762.5 1V17M765 6V12M767.5 7V11M770 8V10M772.5 2V16M775 7V11M777.5 6V12M780 8V10M782.5 8V10M785 4V14M787.5 6V12M790 1V17M792.5 7V11M795 7V11M797.5 7V11M800 8V10M802.5 2V16M805 1V17M807.5 4V14M810 4V14M812.5 8V10M815 7V11M817.5 6V12M820 3V15M822.5 2V16M825 6V12M828 8V10M831 1V17M834 6V12M837 7V11M840 8V10M843 2V16M846 7V11M849 6V12M852 8V10M855 8V10M858 4V14M861 6V12M864 1V17M867 7V11M870 7V11M873 7V11M876 8L876 10M879 2L879 16M882 1L882 17M885 4L885 14M888 4L888 14M891 8V10M894 7V11M897 6V12M900 3V15M903 5V13M906 2V16M909 2V16M912 5V13M915 8V10M918 4V14M921 2V16M924 3V15M926.5 6V12M929 4V14M931.5 6V12M934 4V14M936.5 7V11M939 4V14M941.5 5V13M944 8V10M946.5 4V14M949 7V11M951.5 6V12M954 3V15M956.5 3V15M959 3V15M961.5 2V16M964 6V12M966.5 8V10M969 1V17M971.5 6V12M974 7V11M976.5 8V10M979 2V16M981.5 7V11M984 6V12M986.5 8V10M989 8V10M991.5 4V14M994 6V12M996.5 1V17M999 7V11M1001.5 7V11M1004 7V11M1006.5 8V10M1009 2V16M1011.5 1V17M1014 4V14M1016.5 4V14M1019 8V10M1021.5 7V11M1024 6V12M1026.5 3V15M1029 2V16M1031.5 6V12M1034.5 8V10M1037.5 1V17M1040.5 6V12M1043.5 7V11M1046.5 8V10M1049.5 2V16M1052.5 7V11M1055.5 6V12M1058.5 8V10M1061.5 8V10M1064.5 4V14M1067.5 6V12M1070.5 1V17M1073.5 7V11M1076.5 7V11M1079.5 7V11M1082.5 8V10M1085.5 2V16M1088.5 1V17M1091.5 4V14M1094.5 4V14M1097.5 8V10M1100.5 7V11M1103.5 6V12M1106.5 3V15M1109.5 5V13M1112.5 2V16M1115.5 2V16M1118.5 5V13M1121.5 8V10M1124.5 4V14M1127.5 2V16M1130.5 3V15M1133 6V12M1135.5 4V14M1138 6V12M1140.5 4V14M1143 7V11M1145.5 4V14M1148 5V13M1150.5 8V10M1153 4V14M1155.5 7V11M1158 6V12M1160.5 3V15M1163 3V15M1165.5 3V15M1168 2V16M1170.5 6V12M1173 8V10M1175.5 1V17M1178 6V12M1180.5 7V11M1183 8V10M1185.5 2V16M1188 7V11M1190.5 6V12M1193 8V10M1195.5 8V10M1198 4V14M1200.5 6V12M1203 1V17M1205.5 7V11M1208 7V11M1210.5 7V11M1213 8V10M1215.5 2V16M1218 1V17M1220.5 4V14M1223 4V14M1225.5 8V10M1228 7V11M1230.5 6V12M1233 3V15M1235.5 2V16M1238 6V12M1241 8V10M1244 1V17M1247 6V12M1250 7V11M1253 8V10M1256 2V16M1259 7V11M1262 6V12M1265 8V10M1268 8V10M1271 4V14M1274 6V12M1277 1V17M1280 7V11M1283 7V11M1286 7V11M1289 8V10M1292 2V16M1295 1V17M1298 4V14M1301 4V14M1304 8V10M1307 7V11M1310 6V12M1313 3V15M1316 5V13M1319 2V16M1322 2V16M1325 5V13M1328 8V10M1331 4V14M1334 2V16" stroke="#0D4CE1" stroke-width="1.2" stroke-linecap="round"/>
</svg>
