<svg width="34" height="31" viewBox="0 0 34 31" fill="none" xmlns="http://www.w3.org/2000/svg">
<g filter="url(#filter0_d_2094_236)">
<rect x="4" y="3" width="24" height="24" rx="6" fill="#CAF6FD"/>
<rect x="4" y="3" width="24" height="24" rx="6" fill="url(#paint0_linear_2094_236)"/>
<rect x="4.5" y="3.5" width="23" height="23" rx="5.5" stroke="#21CCEE"/>
<path d="M20.5 19.5L18.325 17.325M15.5 13V16M14 14.5H17M19.5 14.5C19.5 16.7091 17.7091 18.5 15.5 18.5C13.2909 18.5 11.5 16.7091 11.5 14.5C11.5 12.2909 13.2909 10.5 15.5 10.5C17.7091 10.5 19.5 12.2909 19.5 14.5Z" stroke="#0C8AB2" stroke-linecap="round" stroke-linejoin="round"/>
</g>
<defs>
<filter id="filter0_d_2094_236" x="-2" y="0" width="36" height="36" filterUnits="userSpaceOnUse" color-interpolation-filters="sRGB">
<feFlood flood-opacity="0" result="BackgroundImageFix"/>
<feColorMatrix in="SourceAlpha" type="matrix" values="0 0 0 0 0 0 0 0 0 0 0 0 0 0 0 0 0 0 127 0" result="hardAlpha"/>
<feMorphology radius="3" operator="erode" in="SourceAlpha" result="effect1_dropShadow_2094_236"/>
<feOffset dy="3"/>
<feGaussianBlur stdDeviation="4.5"/>
<feComposite in2="hardAlpha" operator="out"/>
<feColorMatrix type="matrix" values="0 0 0 0 0 0 0 0 0 0 0 0 0 0 0 0 0 0 0.25 0"/>
<feBlend mode="normal" in2="BackgroundImageFix" result="effect1_dropShadow_2094_236"/>
<feBlend mode="normal" in="SourceGraphic" in2="effect1_dropShadow_2094_236" result="shape"/>
</filter>
<linearGradient id="paint0_linear_2094_236" x1="16" y1="3" x2="16" y2="27" gradientUnits="userSpaceOnUse">
<stop stop-color="#CAF6FD"/>
<stop offset="1" stop-color="#F4FDFE"/>
</linearGradient>
</defs>
</svg>
