<svg width="24" height="24" viewBox="0 0 24 24" fill="none" xmlns="http://www.w3.org/2000/svg">
<path d="M18.0416 14.9976V5.95829C18.0416 5.03782 17.2954 4.29163 16.3749 4.29163H7.62492C6.70444 4.29163 5.95825 5.03782 5.95825 5.95829V18.0416C5.95825 18.9621 6.70444 19.7083 7.62492 19.7083H7.83325M18.0416 14.9976V15.3035C18.0416 15.9389 17.8348 16.5571 17.4523 17.0655C16.2003 18.7291 14.2354 19.7083 12.1488 19.7083H7.83325M18.0416 14.9976C18.0416 17.1389 15.0338 17.1389 13.7448 16.2824L12.8243 17.1997C11.2126 18.806 10.1125 19.7083 7.83325 19.7083M9.29164 7.62496H14.7083M9.29164 11H14.7083M9.29164 14.375H11.3749" stroke="#505050" stroke-width="1.5" stroke-linecap="round" stroke-linejoin="round"/>
</svg>
