<svg width="40" height="40" viewBox="0 0 40 40" fill="none" xmlns="http://www.w3.org/2000/svg">
<rect x="0.5" y="0.5" width="39" height="39" rx="19.5" fill="white"/>
<rect x="0.5" y="0.5" width="39" height="39" rx="19.5" stroke="#EFEFEF"/>
<path d="M20 27.25V19.75M20 19.75L22.5 22.25M20 19.75L17.5 22.25M23 27.25H26.125C28.4032 27.25 30.25 25.4032 30.25 23.125C30.25 20.8468 28.4032 19 26.125 19C26.0814 19 26.038 19.0007 25.9948 19.002C25.9983 18.9184 26 18.8344 26 18.75C26 15.4363 23.3137 12.75 20 12.75C17.3716 12.75 15.1379 14.4401 14.3265 16.7928C11.7451 17.1234 9.75 19.3287 9.75 22C9.75 24.8995 12.1005 27.25 15 27.25H17" stroke="#2160FD" stroke-width="1.5" stroke-linecap="round" stroke-linejoin="round"/>
</svg>
